<svg height="640pt" viewBox="-40 -20 640 640" width="640pt" xmlns="http://www.w3.org/2000/svg"><path d="m428.667969 80h-300c-27.613281 0-50 22.386719-50 50v310c0 5.523438 4.476562 10 10 10 5.519531 0 10-4.476562 10-10v-310c0-16.566406 13.429687-30 30-30h300c16.566406 0 30 13.433594 30 30v420c0 16.566406-13.433594 30-30 30-16.570313 0-30-13.433594-30-30v-50c0-11.046875-8.957031-20-20-20h-360c-11.046875 0-20 8.953125-20 20v50c0 27.613281 22.386719 50 50 50h380c27.609375 0 50-22.386719 50-50v-420c0-27.613281-22.390625-50-50-50zm-380 500c-16.570313 0-30-13.433594-30-30v-50h360v50c0 10.820312 3.507812 21.34375 10 30zm0 0"/><path d="m378.667969 200c5.519531 0 10-4.476562 10-10s-4.480469-10-10-10h-160c-5.523438 0-10 4.476562-10 10s4.476562 10 10 10zm0 0"/><path d="m158.667969 250c0 5.523438 4.476562 10 10 10h210c5.519531 0 10-4.476562 10-10s-4.480469-10-10-10h-210c-5.523438 0-10 4.476562-10 10zm0 0"/><path d="m168.667969 320h210c5.519531 0 10-4.476562 10-10s-4.480469-10-10-10h-210c-5.523438 0-10 4.476562-10 10s4.476562 10 10 10zm0 0"/><path d="m168.667969 380h210c5.519531 0 10-4.476562 10-10s-4.480469-10-10-10h-210c-5.523438 0-10 4.476562-10 10s4.476562 10 10 10zm0 0"/><path d="m168.667969 440h170c5.519531 0 10-4.476562 10-10s-4.480469-10-10-10h-170c-5.523438 0-10 4.476562-10 10s4.476562 10 10 10zm0 0"/><path d="m508.667969 0h-300c-27.613281 0-50 22.386719-50 50 0 5.523438 4.476562 10 10 10 5.519531 0 10-4.476562 10-10 0-16.566406 13.429687-30 30-30h300c16.566406 0 30 13.433594 30 30v420c0 16.566406-13.433594 30-30 30-5.523438 0-10 4.476562-10 10s4.476562 10 10 10c27.609375 0 50-22.386719 50-50v-420c0-27.613281-22.390625-50-50-50zm0 0"/></svg>